<svg version="1.1" viewBox="0 0 612 612" xmlns="http://www.w3.org/2000/svg"><path d="m598 554h-170c28-17 50-42 65-71h46a71 71 0 0 0 0-141h-28v-36c0-8-6-14-14-14h-382c-8 0-14 6-14 14v97c0 63 33 119 83 151h-170a14.5 14.5 0 1 0 0 29h584a14.5 14.5 0 1 0 0-29zm-59-184a42 42 0 0 1 0 84h-35c5-16 7-33 7-51v-33zm-325-233c23-23 23-60 0-82l-1-1a14.5 14.5 0 1 1 20-21l1 2c34 33 34 88 0 122a58 58 0 0 0 0 83 14.142 14.142 0 1 1-20 20 86 86 0 0 1 0-123zm82 0a58 58 0 0 0 0-82l-1-1a14.849 14.849 0 1 1 21-21l1 2a86 86 0 0 1 0 122 58 58 0 0 0 0 83 14.5 14.5 0 1 1-21 20 86 86 0 0 1 0-123zm83 0c23-23 23-60 0-82l-1-1a14.5 14.5 0 1 1 20-21l1 2c34 33 34 88 0 122a58 58 0 0 0 0 83 14.142 14.142 0 1 1-20 20 86 86 0 0 1 0-123z"/></svg>
