<?xml version="1.0" encoding="UTF-8" standalone="no"?>
<svg
   xmlns:dc="http://purl.org/dc/elements/1.1/"
   xmlns:cc="http://creativecommons.org/ns#"
   xmlns:rdf="http://www.w3.org/1999/02/22-rdf-syntax-ns#"
   xmlns:svg="http://www.w3.org/2000/svg"
   xmlns="http://www.w3.org/2000/svg"
   xmlns:sodipodi="http://sodipodi.sourceforge.net/DTD/sodipodi-0.dtd"
   xmlns:inkscape="http://www.inkscape.org/namespaces/inkscape"
   version="1.1"
   id="Capa_1"
   x="0px"
   y="0px"
   viewBox="0 0 612 612"
   style="enable-background:new 0 0 612 612;"
   xml:space="preserve"
   sodipodi:docname="coffee.svg"
   inkscape:version="1.0.1 (3bc2e813f5, 2020-09-07)"><metadata
   id="metadata41"><rdf:RDF><cc:Work
       rdf:about=""><dc:format>image/svg+xml</dc:format><dc:type
         rdf:resource="http://purl.org/dc/dcmitype/StillImage" /></cc:Work></rdf:RDF></metadata><defs
   id="defs39" /><sodipodi:namedview
   pagecolor="#ffffff"
   bordercolor="#666666"
   borderopacity="1"
   objecttolerance="10"
   gridtolerance="10"
   guidetolerance="10"
   inkscape:pageopacity="0"
   inkscape:pageshadow="2"
   inkscape:window-width="1920"
   inkscape:window-height="1009"
   id="namedview37"
   showgrid="false"
   inkscape:zoom="0.45002956"
   inkscape:cx="-207.48854"
   inkscape:cy="529.66987"
   inkscape:window-x="0"
   inkscape:window-y="0"
   inkscape:window-maximized="1"
   inkscape:current-layer="Capa_1"
   inkscape:document-rotation="0" />
<g
   id="g4"
   style="fill:#000000">
	<path
   d="M597.734,554.176h-169.26c27.259-17.524,49.499-42.178,64.065-71.329h46.692c38.937,0,70.615-31.678,70.615-70.615   s-31.678-70.615-70.615-70.615h-27.781v-35.664c0-7.88-6.388-14.266-14.266-14.266h-382.37c-7.878,0-14.266,6.385-14.266,14.266   v96.702c0,63.548,33.122,119.47,82.978,151.522H14.266C6.388,554.176,0,560.562,0,568.442s6.388,14.266,14.266,14.266h266.338   h50.795h266.336c7.878,0,14.266-6.385,14.266-14.266S605.612,554.176,597.734,554.176z M539.233,370.148   c23.205,0,42.084,18.879,42.084,42.084c0,23.205-18.879,42.084-42.084,42.084h-35.37c4.916-16.374,7.589-33.71,7.589-51.662   v-32.506H539.233z M213.898,137.092c22.711-22.711,22.711-59.665,0-82.379l-1.067-1.067c-5.572-5.569-5.572-14.602,0-20.172   c5.572-5.572,14.602-5.572,20.175,0l1.067,1.067c33.833,33.833,33.833,88.89,0,122.725c-11.002,11.002-17.059,25.627-17.059,41.188   s6.06,30.186,17.059,41.191c5.572,5.569,5.572,14.602,0,20.172c-2.785,2.788-6.437,4.18-10.089,4.18   c-3.652,0-7.301-1.392-10.089-4.18c-16.391-16.388-25.416-38.181-25.416-61.363C188.482,175.273,197.509,153.48,213.898,137.092z    M296.476,137.092c11.002-11.002,17.062-25.63,17.062-41.191s-6.06-30.186-17.062-41.191l-1.067-1.067   c-5.572-5.569-5.572-14.602,0-20.172c5.572-5.572,14.602-5.572,20.175,0l1.067,1.067c16.391,16.388,25.419,38.184,25.419,61.363   s-9.027,44.974-25.419,61.363c-11.002,11.002-17.059,25.627-17.059,41.188s6.06,30.186,17.059,41.191   c5.572,5.569,5.572,14.602,0,20.172c-2.785,2.788-6.437,4.18-10.089,4.18c-3.652,0-7.301-1.392-10.089-4.18   c-16.391-16.388-25.416-38.181-25.416-61.363C271.057,175.273,280.085,153.48,296.476,137.092z M379.055,137.089   c22.708-22.708,22.708-59.662,0-82.376l-1.067-1.067c-5.572-5.569-5.572-14.602,0-20.172c5.572-5.572,14.602-5.572,20.175,0   l1.067,1.067c33.833,33.833,33.833,88.89,0,122.725c-11.002,11.002-17.062,25.627-17.062,41.188s6.06,30.186,17.059,41.188   c5.572,5.572,5.572,14.605,0,20.175c-2.785,2.788-6.437,4.18-10.089,4.18c-3.652,0-7.301-1.392-10.086-4.177   c-16.391-16.391-25.419-38.184-25.419-61.365C353.636,175.273,362.663,153.48,379.055,137.089z"
   id="path2"
   style="fill:#000000" />
</g>
<g
   id="g6">
</g>
<g
   id="g8">
</g>
<g
   id="g10">
</g>
<g
   id="g12">
</g>
<g
   id="g14">
</g>
<g
   id="g16">
</g>
<g
   id="g18">
</g>
<g
   id="g20">
</g>
<g
   id="g22">
</g>
<g
   id="g24">
</g>
<g
   id="g26">
</g>
<g
   id="g28">
</g>
<g
   id="g30">
</g>
<g
   id="g32">
</g>
<g
   id="g34">
</g>
</svg>
