<svg version="1.1" viewBox="0 0 1024 1024" xmlns="http://www.w3.org/2000/svg"><g transform="matrix(2.2756 0 0 2.3814 -70.541 -97.637)"><ellipse cx="256" cy="256" rx="225" ry="215" stroke-width="1.0568"/><g transform="translate(1.1059 -.69044)" fill="#fff" stroke="#000" stroke-width="1px"><path d="m99.476 344.72c4.8533 1.6241 11.069 3.6357 19.177 5.7789 8.1081 2.1432 18.108 4.418 29.663 6.3853s24.663 3.627 38.66 5.1734 28.883 2.9795 47.423 3.7336c18.541 0.75404 40.735 0.8291 60.727-0.35011 19.992-1.1792 37.78-3.6124 57.739-7.3754s42.088-8.8555 57.747-14.278 24.85-11.174 30.038-16.079c5.1884-4.9053 6.3752-8.9647 6.7198-13.06s-0.15343-8.2277-2.1744-11.72c-2.0209-3.4921-5.5656-6.3439-10.573-9.7656-5.0075-3.4218-11.478-7.4132-19.423-10.595s-17.365-5.5549-22.278-6.3211c-4.9123-0.7662-5.3153 0.0739-5.4489 3.0983-0.13366 3.0244 2e-3 8.2324-1.244 12.887-1.2458 4.6541-3.8726 8.755-7.0808 12.244-3.2082 3.4892-6.9981 6.367-13.065 9.2796-6.0674 2.9126-14.412 5.8598-27.796 8.6502-13.383 2.7904-31.804 5.4238-49.034 6.6829s-33.267 1.1439-50.072 0.37726c-16.805-0.76661-34.378-2.1846-47.337-3.6627s-21.304-3.0162-28.852-5.1411c-7.5479-2.1249-14.298-4.8368-19.909-8.0633s-10.081-6.9681-13.14-11.068c-3.059-4.0996-4.7057-8.5574-5.4662-13.146s-0.63437-9.3075-0.79428-11.884c-0.15992-2.5767-0.6069-3.011-6.3137-1.3936s-16.673 5.2876-24.513 8.5515c-7.8408 3.2639-12.556 6.1214-16.681 9.2792-4.1251 3.1578-7.6597 6.6156-9.7917 9.1663-2.132 2.5506-2.8611 4.1935-3.4599 6.931-0.59882 2.7375-1.0674 6.569 0.20194 9.8524 1.2694 3.2833 4.2755 6.0182 8.6509 9.5494s10.12 7.8586 14.738 10.641c4.6179 2.7819 8.1091 4.0186 12.962 5.6427z"/><path d="m133.21 285.71c-0.16442-8.1124-0.49327-24.338 0.87946-39.352 1.3727-15.013 4.4471-28.813 7.0476-38.005 2.6006-9.1915 4.7272-13.774 8.3832-18.818s8.8409-10.55 13.635-14.323c4.7939-3.7734 9.1961-5.8143 17.047-6.841s19.149-1.0394 27.4-0.42249c8.2514 0.61689 13.456 1.863 18.672 2.3012s10.444 0.0688 18.395-2.8274c7.9503-2.8962 18.623-8.3188 27.223-11.958 8.6005-3.6396 15.128-5.496 20.418-6.7499s9.3403-1.9055 15.422-1.6002c6.0816 0.3054 14.193 1.5674 21.188 4.2792s12.87 6.8726 18.117 12.025 9.8637 11.296 13.935 19.341c4.0714 8.0446 7.5975 17.99 10.334 28.96s4.6823 22.966 5.8881 34.264 1.6712 21.898 2.0949 29.576c0.42375 7.6782 0.80577 12.434-0.0828 15.851-0.88861 3.417-3.0477 5.4959-5.9911 7.9081-2.9434 2.4121-6.6712 5.1574-11.944 7.7916-5.2724 2.6343-12.089 5.1575-20.86 7.2467s-19.496 3.7441-31.531 5.1562-25.379 2.581-42.51 2.8381-38.047-0.39808-53.512-1.6296c-15.465-1.2315-25.48-3.0395-34.53-5.1242-9.0508-2.0847-17.138-4.446-23.736-7.2789-6.5982-2.8329-11.707-6.1376-14.995-8.632s-4.754-4.1784-5.4876-5.021c-0.73359-0.8426-0.73359-0.84265-0.89801-8.9551z"/></g></g></svg>
