<?xml version="1.0" encoding="UTF-8" standalone="no"?>
<svg
   xmlns:dc="http://purl.org/dc/elements/1.1/"
   xmlns:cc="http://creativecommons.org/ns#"
   xmlns:rdf="http://www.w3.org/1999/02/22-rdf-syntax-ns#"
   xmlns:svg="http://www.w3.org/2000/svg"
   xmlns="http://www.w3.org/2000/svg"
   xmlns:sodipodi="http://sodipodi.sourceforge.net/DTD/sodipodi-0.dtd"
   xmlns:inkscape="http://www.inkscape.org/namespaces/inkscape"
   version="1.1"
   id="svg130"
   width="512"
   height="512"
   viewBox="0 0 512 512"
   sodipodi:docname="cap_512x512_with_space_background.svg"
   inkscape:version="1.0.1 (3bc2e813f5, 2020-09-07)">
  <metadata
     id="metadata136">
    <rdf:RDF>
      <cc:Work
         rdf:about="">
        <dc:format>image/svg+xml</dc:format>
        <dc:type
           rdf:resource="http://purl.org/dc/dcmitype/StillImage" />
        <dc:title></dc:title>
      </cc:Work>
    </rdf:RDF>
  </metadata>
  <defs
     id="defs134">
    <inkscape:path-effect
       effect="bspline"
       id="path-effect166"
       is_visible="true"
       lpeversion="1"
       weight="33.333333"
       steps="2"
       helper_size="0"
       apply_no_weight="true"
       apply_with_weight="true"
       only_selected="false" />
    <inkscape:path-effect
       effect="bspline"
       id="path-effect162"
       is_visible="true"
       lpeversion="1"
       weight="33.333333"
       steps="2"
       helper_size="0"
       apply_no_weight="true"
       apply_with_weight="true"
       only_selected="false" />
  </defs>
  <sodipodi:namedview
     pagecolor="#ffffff"
     bordercolor="#666666"
     borderopacity="1"
     objecttolerance="10"
     gridtolerance="10"
     guidetolerance="10"
     inkscape:pageopacity="0"
     inkscape:pageshadow="2"
     inkscape:window-width="1920"
     inkscape:window-height="1009"
     id="namedview132"
     showgrid="false"
     fit-margin-top="0"
     fit-margin-left="0"
     fit-margin-right="0"
     fit-margin-bottom="0"
     scale-x="0.9"
     inkscape:zoom="0.8599306"
     inkscape:cx="463.76524"
     inkscape:cy="173.31519"
     inkscape:window-x="0"
     inkscape:window-y="0"
     inkscape:window-maximized="1"
     inkscape:current-layer="g138"
     inkscape:document-rotation="0" />
  <g
     inkscape:groupmode="layer"
     inkscape:label="Image"
     id="g138">
    <ellipse
       style="fill:#000000;stroke-width:1.05682"
       id="path12"
       cx="256"
       cy="256"
       rx="225"
       ry="215" />
    <g
       id="g242"
       transform="translate(1.1059041,-0.6904363)">
      <path
         style="fill:#ffffff;stroke:#000000;stroke-width:1px;stroke-linecap:butt;stroke-linejoin:miter;stroke-opacity:1"
         d="m 99.476329,344.72032 c 4.853321,1.62413 11.068721,3.63574 19.176781,5.77894 8.10806,2.14321 18.10842,4.41805 29.66303,6.38533 11.55461,1.96728 24.66279,3.627 38.66007,5.17345 13.99729,1.54644 28.88283,2.97954 47.42347,3.73359 18.54065,0.75404 40.7353,0.8291 60.72727,-0.35011 19.99197,-1.1792 37.78026,-3.61244 57.73931,-7.37544 19.95904,-3.763 42.08774,-8.85546 57.74729,-14.27766 15.65955,-5.4222 24.84961,-11.17382 30.03797,-16.07908 5.18835,-4.90527 6.37523,-8.96471 6.71982,-13.06037 0.34459,-4.09566 -0.15343,-8.22774 -2.17437,-11.71986 -2.02093,-3.49212 -5.56559,-6.34386 -10.57309,-9.76562 -5.00749,-3.42176 -11.47758,-7.41317 -19.42291,-10.59548 -7.94533,-3.18231 -17.36542,-5.55492 -22.27774,-6.32112 -4.91231,-0.7662 -5.31526,0.0739 -5.44891,3.09831 -0.13366,3.02444 0.002,8.23238 -1.24405,12.88651 -1.2458,4.65414 -3.87255,8.75498 -7.08079,12.24422 -3.20823,3.48924 -6.99807,6.36705 -13.06549,9.27963 -6.06742,2.91257 -14.41246,5.85981 -27.79581,8.65024 -13.38335,2.79042 -31.80439,5.42377 -49.03396,6.68291 -17.22956,1.25914 -33.26683,1.14388 -50.07218,0.37726 -16.80536,-0.76661 -34.37785,-2.18462 -47.3369,-3.66267 -12.95906,-1.47806 -21.30407,-3.01619 -28.85195,-5.14112 -7.54789,-2.12492 -14.29828,-4.83677 -19.90902,-8.06334 -5.61074,-3.22657 -10.0814,-6.96808 -13.14045,-11.06771 -3.05904,-4.09964 -4.70569,-8.55743 -5.46619,-13.14605 -0.7605,-4.58862 -0.63437,-9.30754 -0.79428,-11.88421 -0.15992,-2.57667 -0.6069,-3.011 -6.31373,-1.39359 -5.70682,1.6174 -16.6726,5.28758 -24.513388,8.55151 -7.840786,3.26394 -12.555849,6.12142 -16.680937,9.27925 -4.125089,3.15783 -7.659687,6.61564 -9.7917,9.16627 -2.132012,2.55063 -2.861119,4.19347 -3.459944,6.93096 -0.598825,2.73748 -1.067435,6.56902 0.201943,9.85236 1.269377,3.28333 4.275481,6.01818 8.650861,9.54939 4.375381,3.5312 10.119674,7.85864 14.737577,10.64056 4.617904,2.78192 8.109077,4.0186 12.962397,5.64274 z"
         id="path160"
         inkscape:path-effect="#path-effect162"
         inkscape:original-d="m 98.113047,344.33246 c 6.216403,2.01261 12.431803,4.02421 18.646193,6.03481 10.00176,2.27593 20.00212,4.55078 30.00169,6.82467 13.10971,1.66079 26.21789,3.32051 39.32534,4.97927 14.88714,1.43416 29.77268,2.86726 44.65751,4.2994 22.19655,0.076 44.3912,0.15111 66.5853,0.22517 17.78999,-2.43234 35.57828,-4.86559 53.36592,-7.29988 22.13057,-5.09166 44.25927,-10.18411 66.3874,-15.27766 9.19143,-5.75086 18.38149,-11.50248 27.57074,-17.25521 1.18792,-4.05861 2.3748,-8.11805 3.5607,-12.17857 -0.49704,-4.13125 -0.99507,-8.26333 -1.4941,-12.3965 -3.5438,-2.85085 -7.08845,-5.7026 -10.63418,-8.55539 -6.46934,-3.99057 -12.93943,-7.98197 -19.41064,-11.97446 -9.41946,-2.3717 -18.83955,-4.74431 -28.26083,-7.11797 -0.40197,0.84113 -0.80492,1.68121 -1.20888,2.52032 0.13643,5.20915 0.27185,10.41709 0.40627,15.62414 -2.62585,4.102 -5.2526,8.20284 -7.8804,12.30276 -3.78898,2.87893 -7.57882,5.75674 -11.36973,8.63361 -8.34436,2.94836 -16.68939,5.89561 -25.03559,8.84191 -18.42077,2.63446 -36.84181,5.26782 -55.26421,7.90022 -16.0369,-0.11426 -32.07417,-0.22951 -48.11275,-0.34577 -17.57219,-1.41706 -35.14468,-2.83507 -52.71852,-4.2541 -8.34434,-1.5372 -16.68935,-3.07534 -25.03553,-4.6145 -6.74966,-2.71096 -13.50004,-5.42281 -20.25157,-8.13571 -4.46983,-3.74066 -8.94049,-7.48217 -13.41224,-11.22475 -1.64571,-4.45698 -3.29235,-8.91478 -4.94003,-13.37367 0.12715,-4.71811 0.25328,-9.43703 0.37842,-14.15704 -0.44601,-0.43335 -0.893,-0.86767 -1.341,-1.30301 -10.96523,3.67133 -21.93101,7.34151 -32.898018,11.01076 -4.714251,2.8586 -9.429314,5.71608 -14.145471,8.57261 -3.533742,3.45896 -7.068343,6.91677 -10.604014,10.37365 -0.728137,1.64391 -1.457244,3.28675 -2.187365,4.92862 -0.46763,3.8327 -0.93624,7.66424 -1.40586,11.49486 3.007225,2.73596 6.01333,5.47081 9.018494,8.20472 5.745523,4.32861 11.489816,8.65605 17.233224,12.98258 3.492312,1.23773 6.983485,2.47441 10.473727,3.71011 z" />
      <path
         style="fill:#ffffff;stroke:#000000;stroke-width:1px;stroke-linecap:butt;stroke-linejoin:miter;stroke-opacity:1"
         d="m 133.21023,285.70547 c -0.16442,-8.11243 -0.49327,-24.33831 0.87946,-39.35163 1.37272,-15.01332 4.4471,-28.81324 7.04765,-38.00471 2.60056,-9.19147 4.72718,-13.77373 8.38315,-18.81798 3.65597,-5.04425 8.84086,-10.54978 13.63476,-14.32321 4.79391,-3.77344 9.19608,-5.81434 17.04677,-6.84105 7.85069,-1.02671 19.14881,-1.03937 27.40026,-0.42249 8.25145,0.61689 13.45563,1.863 18.67182,2.30118 5.21619,0.43818 10.44432,0.0688 18.39464,-2.82743 7.95033,-2.8962 18.62286,-8.31881 27.22334,-11.95839 8.60047,-3.63958 15.12815,-5.49596 20.41762,-6.74993 5.28947,-1.25397 9.34029,-1.90554 15.42192,-1.60015 6.08163,0.3054 14.19335,1.56741 21.18755,4.27922 6.9942,2.71181 12.87047,6.8726 18.11712,12.02506 5.24665,5.15246 9.86367,11.29593 13.93511,19.34057 4.07145,8.04463 7.5975,17.98981 10.3336,28.96028 2.7361,10.97047 4.68234,22.96562 5.88813,34.26355 1.20578,11.29793 1.67118,21.89806 2.09493,29.57626 0.42375,7.67819 0.80577,12.43401 -0.0828,15.85096 -0.88861,3.41696 -3.04769,5.49594 -5.99112,7.90808 -2.94342,2.41213 -6.67115,5.15738 -11.94353,7.79164 -5.27238,2.63427 -12.08946,5.1575 -20.8605,7.24669 -8.77103,2.08918 -19.49573,3.74412 -31.53062,5.15616 -12.03489,1.41204 -25.3793,2.58105 -42.51004,2.83806 -17.13074,0.25701 -38.04682,-0.39808 -53.51225,-1.6296 -15.46544,-1.23151 -25.47951,-3.03954 -34.5303,-5.1242 -9.0508,-2.08466 -17.13785,-4.44596 -23.73606,-7.27886 -6.5982,-2.8329 -11.70718,-6.13764 -14.99497,-8.63197 -3.28779,-2.49433 -4.75402,-4.17843 -5.4876,-5.02103 -0.73359,-0.8426 -0.73359,-0.84265 -0.89801,-8.95508 z"
         id="path164"
         inkscape:path-effect="#path-effect166"
         inkscape:original-d="m 133.37465,293.8179 c -0.32786,-16.22488 -0.65671,-32.45076 -0.98657,-48.67764 3.0755,-13.79948 6.14987,-27.5994 9.22331,-41.4006 2.12771,-4.58144 4.25433,-9.1637 6.38,-13.74704 5.1861,-5.50475 10.37099,-11.01028 15.55498,-16.51692 4.40335,-2.03999 8.80552,-4.0809 13.20678,-6.12285 11.29956,-0.0117 22.59768,-0.0244 33.89503,-0.038 5.20538,1.24716 10.40956,2.49327 15.61284,3.73841 5.22934,-0.36844 10.45747,-0.73786 15.6847,-1.10828 10.67396,-5.42183 21.34649,-10.84444 32.01824,-16.26816 6.52893,-1.85545 13.05661,-3.71183 19.58341,-5.56924 4.05198,-0.65059 8.1028,-1.30216 12.1527,-1.95474 8.11305,1.26306 16.22477,2.52507 24.33566,3.78611 5.8775,4.16196 11.75377,8.32275 17.62916,12.48262 4.6182,6.14473 9.23522,12.28821 13.85134,18.43081 3.52719,9.94658 7.05324,19.89176 10.57837,29.83613 1.94732,11.99664 3.89356,23.99179 5.83884,35.98618 0.46642,10.60156 0.93183,21.20169 1.39624,31.80104 0.38304,4.75701 0.76506,9.51283 1.1461,14.26775 -2.15818,2.08007 -4.31726,4.15906 -6.47739,6.23709 -3.72687,2.74635 -7.4546,5.49159 -11.18339,8.23588 -6.81635,2.52433 -13.63343,5.04756 -20.45165,7.56984 -10.72413,1.65601 -21.44883,3.31095 -32.17475,4.96492 -13.34394,1.17006 -26.68835,2.33907 -40.03403,3.5071 -20.91592,-0.65412 -41.832,-1.30921 -62.74951,-1.96532 -10.01347,-1.8071 -20.02754,-3.61513 -30.04281,-5.42419 -8.08637,-2.36039 -16.17342,-4.72169 -24.26163,-7.08404 -5.10817,-3.30387 -10.21715,-6.6086 -15.32722,-9.9144 -1.46528,-1.68317 -2.9315,-3.36728 -4.39875,-5.05241 z" />
    </g>
  </g>
</svg>
