<?xml version="1.0" encoding="UTF-8" standalone="no"?>
<svg
   xmlns:dc="http://purl.org/dc/elements/1.1/"
   xmlns:cc="http://creativecommons.org/ns#"
   xmlns:rdf="http://www.w3.org/1999/02/22-rdf-syntax-ns#"
   xmlns:svg="http://www.w3.org/2000/svg"
   xmlns="http://www.w3.org/2000/svg"
   xmlns:sodipodi="http://sodipodi.sourceforge.net/DTD/sodipodi-0.dtd"
   xmlns:inkscape="http://www.inkscape.org/namespaces/inkscape"
   width="2500"
   height="2490"
   viewBox="0 0 256 255"
   preserveAspectRatio="xMinYMin meet"
   version="1.1"
   id="svg18"
   sodipodi:docname="python.svg"
   inkscape:version="1.0.1 (3bc2e813f5, 2020-09-07)">
  <metadata
     id="metadata22">
    <rdf:RDF>
      <cc:Work
         rdf:about="">
        <dc:format>image/svg+xml</dc:format>
        <dc:type
           rdf:resource="http://purl.org/dc/dcmitype/StillImage" />
      </cc:Work>
    </rdf:RDF>
  </metadata>
  <sodipodi:namedview
     pagecolor="#ffffff"
     bordercolor="#666666"
     borderopacity="1"
     objecttolerance="10"
     gridtolerance="10"
     guidetolerance="10"
     inkscape:pageopacity="0"
     inkscape:pageshadow="2"
     inkscape:window-width="1920"
     inkscape:window-height="1009"
     id="namedview20"
     showgrid="false"
     inkscape:zoom="0.31285141"
     inkscape:cx="565.96919"
     inkscape:cy="1245"
     inkscape:window-x="0"
     inkscape:window-y="0"
     inkscape:window-maximized="1"
     inkscape:current-layer="svg18" />
  <defs
     id="defs12">
    <linearGradient
       x1="12.959%"
       y1="12.039%"
       x2="79.639%"
       y2="78.201%"
       id="a">
      <stop
         stop-color="#000"
         offset="0%"
         id="stop2" />
      <stop
         stop-color="#000"
         offset="100%"
         id="stop4" />
    </linearGradient>
    <linearGradient
       x1="19.128%"
       y1="20.579%"
       x2="90.742%"
       y2="88.429%"
       id="b">
      <stop
         stop-color="#000"
         offset="0%"
         id="stop7" />
      <stop
         stop-color="#000"
         offset="100%"
         id="stop9" />
    </linearGradient>
  </defs>
  <path
     d="M126.916.072c-64.832 0-60.784 28.115-60.784 28.115l.072 29.128h61.868v8.745H41.631S.145 61.355.145 126.77c0 65.417 36.21 63.097 36.21 63.097h21.61v-30.356s-1.165-36.21 35.632-36.21h61.362s34.475.557 34.475-33.319V33.97S194.67.072 126.916.072zM92.802 19.66a11.12 11.12 0 0 1 11.13 11.13 11.12 11.12 0 0 1-11.13 11.13 11.12 11.12 0 0 1-11.13-11.13 11.12 11.12 0 0 1 11.13-11.13z"
     fill="url(#a)"
     id="path14"
     style="fill:#ffffff" />
  <path
     d="M128.757 254.126c64.832 0 60.784-28.115 60.784-28.115l-.072-29.127H127.6v-8.745h86.441s41.486 4.705 41.486-60.712c0-65.416-36.21-63.096-36.21-63.096h-21.61v30.355s1.165 36.21-35.632 36.21h-61.362s-34.475-.557-34.475 33.32v56.013s-5.235 33.897 62.518 33.897zm34.114-19.586a11.12 11.12 0 0 1-11.13-11.13 11.12 11.12 0 0 1 11.13-11.131 11.12 11.12 0 0 1 11.13 11.13 11.12 11.12 0 0 1-11.13 11.13z"
     fill="url(#b)"
     id="path16"
     style="fill:#ffffff" />
</svg>
